<svg width="24" height="24" viewBox="0 0 24 24" fill="none" xmlns="http://www.w3.org/2000/svg">
<path d="M24 12C24 13.0119 22.5003 13.8129 22.251 14.7481C21.9933 15.7131 22.8837 17.1553 22.3938 18.0011C21.8974 18.8596 20.1995 18.8063 19.5029 19.5029C18.8063 20.1995 18.8596 21.8974 18.0011 22.3937C17.1553 22.8837 15.7131 21.9932 14.7481 22.251C13.815 22.5003 13.0119 24 12 24C10.9881 24 10.1871 22.5003 9.25191 22.251C8.28688 21.9932 6.84467 22.8837 5.99893 22.3937C5.14042 21.8974 5.19368 20.1995 4.49707 19.5029C3.80046 18.8063 2.10261 18.8596 1.60625 18.0011C1.11628 17.1553 2.00675 15.7131 1.74898 14.7481C1.49973 13.815 0 13.014 0 12C0 10.9881 1.49973 10.1871 1.74898 9.25191C2.00675 8.28688 1.11628 6.84466 1.60625 5.99893C2.10261 5.14042 3.80046 5.19368 4.49707 4.49707C5.19368 3.80046 5.14042 2.10261 5.99893 1.60625C6.84467 1.11628 8.28688 2.00675 9.25191 1.74898C10.185 1.49973 10.9881 0 12 0C13.0119 0 13.8129 1.49973 14.7481 1.74898C15.7131 2.00675 17.1553 1.11628 18.0011 1.60625C18.8596 2.10261 18.8063 3.80046 19.5029 4.49707C20.1995 5.19368 21.8974 5.14042 22.3938 5.99893C22.8837 6.84466 21.9933 8.28688 22.251 9.25191C22.5024 10.1871 24 10.9881 24 12Z" fill="#76B9DC"/>
<path d="M12 17.8333C15.2217 17.8333 17.8334 15.2216 17.8334 12C17.8334 8.7783 15.2217 6.16663 12 6.16663C8.77836 6.16663 6.16669 8.7783 6.16669 12C6.16669 15.2216 8.77836 17.8333 12 17.8333Z" stroke="white" stroke-width="1.3125" stroke-linecap="round" stroke-linejoin="round"/>
<path d="M13.5879 9.82177C13.8729 9.72678 14.0154 9.67928 14.1102 9.71307C14.1926 9.74248 14.2575 9.80737 14.2869 9.88983C14.3207 9.98459 14.2732 10.1271 14.1782 10.4121L13.3105 13.0153C13.2834 13.0964 13.2699 13.137 13.2468 13.1707C13.2264 13.2006 13.2006 13.2264 13.1708 13.2468C13.1371 13.2698 13.0965 13.2834 13.0153 13.3104L10.4121 14.1782C10.1271 14.2731 9.98465 14.3206 9.88989 14.2869C9.80743 14.2574 9.74254 14.1926 9.71313 14.1101C9.67934 14.0153 9.72684 13.8728 9.82183 13.5879L10.6896 10.9847C10.7166 10.9035 10.7301 10.8629 10.7532 10.8292C10.7736 10.7994 10.7994 10.7736 10.8293 10.7531C10.863 10.7301 10.9035 10.7166 10.9847 10.6895L13.5879 9.82177Z" stroke="white" stroke-width="1.3125" stroke-linecap="round" stroke-linejoin="round"/>
</svg>
