<svg width="24" height="24" viewBox="0 0 24 24" fill="none" xmlns="http://www.w3.org/2000/svg">
<path d="M7.15632 7.21332L3.36721 3.6821M11.0435 13.9248C8.28845 16.685 4.76785 19.1545 4.33653 19.6343C3.63602 20.4134 4.97311 21.8392 5.75561 20.9571C6.22094 20.4326 9.51874 15.9405 11.2761 14.1315M13.9887 10.1697C14.0627 10.0827 14.1442 9.98069 14.2399 9.8766C14.743 9.32925 13.9382 7.9006 13.9887 6.25164C14.0392 4.60267 19.1357 1.58229 20.614 2.94089C22.0923 4.29949 19.8569 9.81134 18.012 9.94976C16.1671 10.0882 14.8929 9.58345 14.4602 10.1697C14.3852 10.2714 14.3032 10.3415 14.2399 10.4121M5.18079 1.7793L9.87394 6.16231C10.0303 6.85685 10.367 9.52686 11.2761 10.4894L21.1526 18.6816C21.8871 19.3588 20.9455 20.5347 20.1796 20.0083C19.6674 19.6562 13.6465 13.6078 10.8587 10.9278C10.1683 10.3285 7.22769 10.1043 6.35989 9.98537L1.66406 5.64782" stroke="black" stroke-width="1.5"/>
</svg>
