<svg width="16" height="16" viewBox="0 0 16 16" fill="none" xmlns="http://www.w3.org/2000/svg">
<path d="M1.59766 4.8285L1.59766 4.2285C1.43852 4.2285 1.2859 4.29172 1.17337 4.40425C1.06085 4.51679 0.997642 4.66941 0.997656 4.82855L1.59766 4.8285ZM1.59843 13.4126L0.99843 13.4127C0.99846 13.744 1.26708 14.0126 1.59843 14.0126V13.4126ZM14.4019 13.4126V14.0126C14.7333 14.0126 15.0019 13.744 15.0019 13.4126H14.4019ZM14.4019 4.82864H15.0019C15.0019 4.49728 14.7333 4.22866 14.4019 4.22864L14.4019 4.82864ZM7.2736 2.60205V2.00205C7.04305 2.00205 6.83289 2.13415 6.73293 2.34191L7.2736 2.60205ZM10.8397 2.60205L11.3833 2.34814C11.2847 2.13699 11.0727 2.00205 10.8397 2.00205V2.60205ZM11.8796 4.8285L11.3359 5.08241L11.4976 5.42848L11.8795 5.4285L11.8796 4.8285ZM6.20236 4.8285V5.4285H6.57951L6.74303 5.08864L6.20236 4.8285ZM0.997656 4.82855L0.99843 13.4127L2.19843 13.4125L2.19766 4.82844L0.997656 4.82855ZM1.59843 14.0126H14.4019V12.8126H1.59843V14.0126ZM15.0019 13.4126V4.82864H13.8019V13.4126H15.0019ZM7.2736 3.20205H10.8397V2.00205H7.2736V3.20205ZM14.4019 4.22864L11.8796 4.2285L11.8795 5.4285L14.4019 5.42864L14.4019 4.22864ZM1.59766 5.4285H3.94534V4.2285H1.59766L1.59766 5.4285ZM3.94534 5.4285H6.20236V4.2285H3.94534V5.4285ZM3.91358 5.42766C3.9142 5.42769 3.98497 5.42512 4.07738 5.56713C4.18337 5.72999 4.31838 6.09151 4.31838 6.81936H5.51838C5.51838 5.96872 5.36475 5.34529 5.08315 4.91259C4.78799 4.45904 4.37223 4.25029 3.9771 4.22934L3.91358 5.42766ZM4.31838 6.81936V7.15248H5.51838V6.81936H4.31838ZM6.74303 5.08864L7.81428 2.86219L6.73293 2.34191L5.66169 4.56836L6.74303 5.08864ZM10.296 2.85596L11.3359 5.08241L12.4232 4.57459L11.3833 2.34814L10.296 2.85596ZM10.8212 9.06024C10.8212 10.0889 9.98726 10.9228 8.9586 10.9228V12.1228C10.65 12.1228 12.0212 10.7516 12.0212 9.06024H10.8212ZM8.9586 10.9228C7.92994 10.9228 7.09604 10.0889 7.09604 9.06024H5.89604C5.89604 10.7516 7.2672 12.1228 8.9586 12.1228V10.9228ZM7.09604 9.06024C7.09604 8.03158 7.92994 7.19768 8.9586 7.19768V5.99768C7.26719 5.99768 5.89604 7.36884 5.89604 9.06024H7.09604ZM8.9586 7.19768C9.98726 7.19768 10.8212 8.03158 10.8212 9.06024H12.0212C12.0212 7.36884 10.65 5.99768 8.9586 5.99768V7.19768ZM7.9489 5.20232H8.95345V4.00232H7.9489V5.20232ZM8.95345 5.20232H9.95799V4.00232H8.95345V5.20232Z" fill="#1D1D1D"/>
</svg>
