<svg width="25" height="24" viewBox="0 0 25 24" fill="none" xmlns="http://www.w3.org/2000/svg">
<path d="M2.46094 6.41008V5.61008C2.24875 5.61008 2.04526 5.69438 1.89523 5.84442C1.7452 5.99447 1.66092 6.19797 1.66094 6.41016L2.46094 6.41008ZM2.46219 20.2618L1.66219 20.2619C1.66223 20.7037 2.02039 21.0618 2.46219 21.0618V20.2618ZM22.8828 20.2618V21.0618C23.3246 21.0618 23.6828 20.7036 23.6828 20.2618H22.8828ZM22.8828 6.41031H23.6828C23.6828 5.9685 23.3247 5.61033 22.8829 5.61031L22.8828 6.41031ZM11.4736 2.81738V2.01738C11.1662 2.01738 10.886 2.19352 10.7527 2.47053L11.4736 2.81738ZM17.228 2.81738L17.9528 2.47883C17.8213 2.19731 17.5387 2.01738 17.228 2.01738V2.81738ZM18.906 6.41008L18.1812 6.74863L18.3967 7.21005L18.906 7.21008L18.906 6.41008ZM9.74501 6.41008V7.21008H10.2479L10.4659 6.75694L9.74501 6.41008ZM1.66094 6.41016L1.66219 20.2619L3.26219 20.2617L3.26094 6.41001L1.66094 6.41016ZM2.46219 21.0618H22.8828V19.4618H2.46219V21.0618ZM23.6828 20.2618V6.41031L22.0828 6.41031V20.2618H23.6828ZM11.4736 3.61738L17.228 3.61738V2.01738L11.4736 2.01738V3.61738ZM22.8829 5.61031L18.9061 5.61008L18.906 7.21008L22.8828 7.21031L22.8829 5.61031ZM2.46094 7.21008H6.10297V5.61008H2.46094L2.46094 7.21008ZM6.10297 7.21008H9.74501V5.61008H6.10297V7.21008ZM6.06062 7.20896C6.11692 7.21195 6.27947 7.23742 6.45701 7.51024C6.65265 7.81086 6.87312 8.43092 6.87312 9.62264H8.47312C8.47312 8.26721 8.22782 7.29792 7.79804 6.63752C7.35016 5.9493 6.72763 5.64208 6.14533 5.61121L6.06062 7.20896ZM6.87312 9.62264V10.1602H8.47312V9.62264H6.87312ZM10.4659 6.75694L12.1945 3.16424L10.7527 2.47053L9.02411 6.06323L10.4659 6.75694ZM16.5031 3.15593L18.1812 6.74863L19.6309 6.07154L17.9528 2.47883L16.5031 3.15593ZM17.3663 13.2386C17.3663 14.9914 15.9454 16.4123 14.1926 16.4123V18.0123C16.8291 18.0123 18.9663 15.8751 18.9663 13.2386L17.3663 13.2386ZM14.1926 16.4123C12.4398 16.4123 11.0189 14.9914 11.0189 13.2386H9.41891C9.41891 15.8751 11.5562 18.0123 14.1926 18.0123V16.4123ZM11.0189 13.2386C11.0189 11.4858 12.4398 10.0649 14.1926 10.0649V8.46492C11.5562 8.46492 9.41891 10.6022 9.41891 13.2386H11.0189ZM14.1926 10.0649C15.9454 10.0649 17.3663 11.4858 17.3663 13.2386L18.9663 13.2386C18.9663 10.6022 16.8291 8.46492 14.1926 8.46492V10.0649ZM12.5633 6.84511H14.1843V5.24511H12.5633V6.84511ZM14.1843 6.84511H15.8053V5.24511L14.1843 5.24511V6.84511Z" fill="white"/>
</svg>
