<svg width="16" height="16" viewBox="0 0 16 16" fill="none" xmlns="http://www.w3.org/2000/svg">
<path d="M15.2455 8.08077L15.6697 7.65644L14.8211 6.80804L14.3969 7.23237L15.2455 8.08077ZM13.4083 9.0699L12.9841 9.49423L13.4084 9.91843L13.8326 9.4941L13.4083 9.0699ZM12.4187 7.23224L11.9944 6.80804L11.146 7.6567L11.5703 8.0809L12.4187 7.23224ZM12.9847 8.65065C12.9483 8.98001 13.1858 9.27653 13.5152 9.31294C13.8445 9.34935 14.141 9.11186 14.1775 8.78249L12.9847 8.65065ZM12.673 12.3852L13.0504 11.9188L12.1176 11.1639L11.7401 11.6303L12.673 12.3852ZM7.8599 4.47657V3.87657H6.6599V4.47657H7.8599ZM7.2599 8.0099H6.6599V8.25724L6.8342 8.43272L7.2599 8.0099ZM8.53805 10.1482L8.96086 10.5739L9.81228 9.72828L9.38946 9.30258L8.53805 10.1482ZM14.3969 7.23237L12.984 8.6457L13.8326 9.4941L15.2455 8.08077L14.3969 7.23237ZM13.8325 8.64558L12.4187 7.23224L11.5703 8.0809L12.9841 9.49423L13.8325 8.64558ZM7.2599 13.7699C4.07874 13.7699 1.4999 11.1911 1.4999 8.0099H0.299902C0.299902 11.8538 3.416 14.9699 7.2599 14.9699V13.7699ZM1.4999 8.0099C1.4999 4.82874 4.07874 2.2499 7.2599 2.2499V1.0499C3.416 1.0499 0.299902 4.166 0.299902 8.0099H1.4999ZM7.2599 2.2499C10.4411 2.2499 13.0199 4.82874 13.0199 8.0099H14.2199C14.2199 4.166 11.1038 1.0499 7.2599 1.0499V2.2499ZM13.0199 8.0099C13.0199 8.2267 13.008 8.44047 12.9847 8.65065L14.1775 8.78249C14.2055 8.52862 14.2199 8.27083 14.2199 8.0099H13.0199ZM11.7401 11.6303C10.6832 12.9365 9.0691 13.7699 7.2599 13.7699V14.9699C9.44657 14.9699 11.398 13.9608 12.673 12.3852L11.7401 11.6303ZM6.6599 4.47657V8.0099H7.8599V4.47657H6.6599ZM6.8342 8.43272L8.53805 10.1482L9.38946 9.30258L7.68561 7.58709L6.8342 8.43272Z" fill="#1D1D1D"/>
</svg>
