<svg width="32" height="32" viewBox="0 0 32 32" fill="none" xmlns="http://www.w3.org/2000/svg">
<path fill-rule="evenodd" clip-rule="evenodd" d="M3.74056 6.66602C2.66876 8.52246 2.66876 11.0147 2.66876 15.9993C2.66876 20.984 2.66876 23.4763 3.74056 25.3327C4.44271 26.5489 5.45261 27.5588 6.66877 28.2609C8.52521 29.3327 11.0175 29.3327 16.0021 29.3327C20.9867 29.3327 23.4791 29.3327 25.3355 28.2609C26.5516 27.5588 27.5615 26.5489 28.2636 25.3327C29.3355 23.4763 29.3354 20.984 29.3354 15.9993C29.3354 11.0147 29.3355 8.52246 28.2636 6.66602C27.5615 5.44986 26.5516 4.43996 25.3355 3.73782C23.4791 2.66602 20.9867 2.66602 16.0021 2.66602C11.0175 2.66602 8.52521 2.66602 6.66877 3.73782C5.45261 4.43996 4.44271 5.44986 3.74056 6.66602ZM16.0021 2.66602L15.5205 9.58774C15.2993 12.7666 12.7694 15.2965 9.59049 15.5177L2.66876 15.9993L9.59049 16.4809C12.7694 16.7021 15.2993 19.2321 15.5205 22.4109L16.0021 29.3327L16.4837 22.4109C16.7049 19.2321 19.2348 16.7021 22.4137 16.4809L29.3354 15.9993L22.4137 15.5177C19.2348 15.2965 16.7049 12.7666 16.4837 9.58774L16.0021 2.66602Z" fill="white"/>
</svg>
