<svg width="25" height="24" viewBox="0 0 25 24" fill="none" xmlns="http://www.w3.org/2000/svg">
<g clip-path="url(#clip0_88_3267)">
<path d="M1.33363 16.996C1.33363 16.996 1.33386 14.8499 1.33386 12.8992C1.33386 12.3278 2.90532 12.4116 2.90532 12.4116H5.54804H12.3337H21.762C21.762 12.4116 23.3334 12.3278 23.3334 12.8992C23.3334 14.3621 23.3334 16.9961 23.3334 16.9961M1.33363 16.996L23.3334 16.9961M1.33363 16.996C1.33363 16.996 1.33318 19.5121 1.33393 19.9999L3.68383 20L5.77902 16.9963M1.33363 16.996L5.77902 16.9963M23.3334 16.9961L18.8884 16.9963M23.3334 16.9961L23.3335 19.9999L20.9836 20L18.8884 16.9963M12.3337 8.40773C12.3337 6.94466 5.54804 6.94466 5.54804 8.40773C5.54804 8.87868 5.54804 9.82811 5.54804 10.6842M12.3337 8.40773C12.3337 6.94466 19.1193 6.94466 19.1193 8.40773C19.1193 9.05935 19.1193 9.92475 19.1193 10.6842M12.3337 8.40773C12.3337 8.87868 12.3337 9.82811 12.3337 10.6842C12.3337 9.92475 12.3337 9.05935 12.3337 8.40773ZM5.77902 16.9963H18.8884M2.90532 10.6842C2.90532 9.15211 2.90532 6.95103 2.90532 5.58394C2.90532 3.31688 21.762 3.63309 21.762 5.58386C21.762 6.78259 21.762 9.08623 21.762 10.6842" stroke="white" stroke-width="1.5"/>
</g>
<defs>
<clipPath id="clip0_88_3267">
<rect width="24" height="24" fill="white" transform="translate(0.333496)"/>
</clipPath>
</defs>
</svg>
