<svg width="25" height="24" viewBox="0 0 25 24" fill="none" xmlns="http://www.w3.org/2000/svg">
<g clip-path="url(#clip0_293_7950)">
<path d="M1.50014 16.996C1.50014 16.996 1.50036 14.8499 1.50036 12.8992C1.50036 12.3278 3.07182 12.4116 3.07182 12.4116H5.71454H12.5002H21.9285C21.9285 12.4116 23.4999 12.3278 23.4999 12.8992C23.4999 14.3621 23.4999 16.9961 23.4999 16.9961M1.50014 16.996L23.4999 16.9961M1.50014 16.996C1.50014 16.996 1.49968 19.5121 1.50043 19.9999L3.85034 20L5.94552 16.9963M1.50014 16.996L5.94552 16.9963M23.4999 16.9961L19.0549 16.9963M23.4999 16.9961L23.5 19.9999L21.1501 20L19.0549 16.9963M12.5002 8.40773C12.5002 6.94466 5.71454 6.94466 5.71454 8.40773C5.71454 8.87868 5.71454 9.82811 5.71454 10.6842M12.5002 8.40773C12.5002 6.94466 19.2858 6.94466 19.2858 8.40773C19.2858 9.05935 19.2858 9.92475 19.2858 10.6842M12.5002 8.40773C12.5002 8.87868 12.5002 9.82811 12.5002 10.6842C12.5002 9.92475 12.5002 9.05935 12.5002 8.40773ZM5.94552 16.9963H19.0549M3.07182 10.6842C3.07182 9.15211 3.07182 6.95103 3.07182 5.58394C3.07182 3.31688 21.9285 3.63309 21.9285 5.58386C21.9285 6.78259 21.9285 9.08623 21.9285 10.6842" stroke="#060606" stroke-width="1.5"/>
</g>
<defs>
<clipPath id="clip0_293_7950">
<rect width="24" height="24" fill="white" transform="translate(0.5)"/>
</clipPath>
</defs>
</svg>
