<svg width="20" height="20" viewBox="0 0 20 20" fill="none" xmlns="http://www.w3.org/2000/svg">
<path fill-rule="evenodd" clip-rule="evenodd" d="M2.33653 4.16669C1.66666 5.32694 1.66666 6.88463 1.66666 10C1.66666 13.1154 1.66666 14.6731 2.33653 15.8334C2.77537 16.5935 3.40656 17.2246 4.16666 17.6635C5.32691 18.3334 6.8846 18.3334 9.99999 18.3334C13.1154 18.3334 14.6731 18.3334 15.8333 17.6635C16.5934 17.2246 17.2246 16.5935 17.6635 15.8334C18.3333 14.6731 18.3333 13.1154 18.3333 10C18.3333 6.88463 18.3333 5.32694 17.6635 4.16669C17.2246 3.40659 16.5934 2.7754 15.8333 2.33656C14.6731 1.66669 13.1154 1.66669 9.99999 1.66669C6.8846 1.66669 5.32691 1.66669 4.16666 2.33656C3.40656 2.7754 2.77537 3.40659 2.33653 4.16669ZM6.39324 14.0983C5.85449 14.0983 5.41618 13.6601 5.41618 13.1213V4.57572H14.1667V13.1213C14.1667 13.6601 13.7283 14.0983 13.1896 14.0983H12.2284C11.1788 14.0983 10.5077 14.4083 9.6639 15.2827L9.07232 15.9064V14.0983H6.39324ZM13.5226 5.21972H6.06021V13.1213C6.06021 13.305 6.2096 13.4543 6.39324 13.4543H9.61045L9.61396 14.5839C10.5059 13.6073 11.3039 13.4543 12.2284 13.4543H13.1896C13.3732 13.4543 13.5226 13.305 13.5226 13.1213V5.21972Z" fill="#1D1D1D"/>
</svg>
