<svg width="20" height="20" viewBox="0 0 20 20" fill="none" xmlns="http://www.w3.org/2000/svg">
<path fill-rule="evenodd" clip-rule="evenodd" d="M2.33656 4.16669C1.66669 5.32694 1.66669 6.88463 1.66669 10C1.66669 13.1154 1.66669 14.6731 2.33656 15.8334C2.7754 16.5935 3.40659 17.2246 4.16669 17.6635C5.32694 18.3334 6.88463 18.3334 10 18.3334C13.1154 18.3334 14.6731 18.3334 15.8334 17.6635C16.5935 17.2246 17.2246 16.5935 17.6635 15.8334C18.3334 14.6731 18.3334 13.1154 18.3334 10C18.3334 6.88463 18.3334 5.32694 17.6635 4.16669C17.2246 3.40659 16.5935 2.7754 15.8334 2.33656C14.6731 1.66669 13.1154 1.66669 10 1.66669C6.88463 1.66669 5.32694 1.66669 4.16669 2.33656C3.40659 2.7754 2.7754 3.40659 2.33656 4.16669ZM4.79169 6.87502H6.00697C6.31756 6.87502 6.43439 7.01096 6.55087 7.34748C7.14524 9.07888 8.1474 10.592 8.55938 10.592C8.71389 10.592 8.78475 10.5209 8.78475 10.1285V8.33886C8.75685 7.82943 8.5789 7.60912 8.4471 7.44594C8.3657 7.34518 8.3019 7.26619 8.3019 7.15436C8.3019 7.01844 8.41803 6.87502 8.61113 6.87502H10.5209C10.7784 6.87502 10.8681 7.01274 10.8681 7.32174V9.72936C10.8681 9.98684 10.9799 10.077 11.0571 10.077C11.2116 10.077 11.3404 9.98684 11.6236 9.7036C12.4991 8.7251 13.1171 7.21872 13.1171 7.21872C13.1944 7.03848 13.3369 6.87502 13.6459 6.87502H14.8611C15.2286 6.87502 15.3059 7.06424 15.2286 7.32174C15.0852 7.97927 13.7983 9.82467 13.6151 10.0849L13.5935 10.1156C13.4648 10.3216 13.4133 10.4246 13.5935 10.6563C13.657 10.7452 13.7924 10.8779 13.9474 11.0297C14.1068 11.1858 14.2868 11.3621 14.4304 11.5318C14.9524 12.1191 15.3458 12.6146 15.4554 12.956C15.5556 13.2986 15.382 13.4722 15.0347 13.4722H13.8195C13.494 13.4722 13.33 13.2899 12.9759 12.8959C12.8257 12.7289 12.6414 12.5239 12.3961 12.2786C11.6751 11.5833 11.3661 11.4932 11.1859 11.4932C10.9413 11.4932 10.8681 11.5625 10.8681 11.9097V12.9996C10.8681 13.2986 10.7725 13.4722 10 13.4722C8.71252 13.4722 7.29762 12.6906 6.29339 11.2486C4.78703 9.13711 4.37502 7.5406 4.37502 7.21872C4.37502 7.03848 4.44447 6.87502 4.79169 6.87502Z" fill="#1D1D1D"/>
</svg>
