<svg width="20" height="20" viewBox="0 0 20 20" fill="none" xmlns="http://www.w3.org/2000/svg">
<path fill-rule="evenodd" clip-rule="evenodd" d="M2.33653 4.16669C1.66666 5.32694 1.66666 6.88463 1.66666 10C1.66666 13.1154 1.66666 14.6731 2.33653 15.8334C2.77537 16.5935 3.40656 17.2246 4.16666 17.6635C5.32691 18.3334 6.8846 18.3334 9.99999 18.3334C13.1154 18.3334 14.6731 18.3334 15.8333 17.6635C16.5934 17.2246 17.2246 16.5935 17.6635 15.8334C18.3333 14.6731 18.3333 13.1154 18.3333 10C18.3333 6.88463 18.3333 5.32694 17.6635 4.16669C17.2246 3.40659 16.5934 2.7754 15.8333 2.33656C14.6731 1.66669 13.1154 1.66669 9.99999 1.66669C6.8846 1.66669 5.32691 1.66669 4.16666 2.33656C3.40656 2.7754 2.77537 3.40659 2.33653 4.16669ZM11.5813 15.0276H13.3333L13.3223 5.00002H10.7879C8.24241 5.00002 6.89806 6.31132 6.89806 8.23969C6.89806 9.78239 7.63635 10.697 8.94765 11.6336L6.66666 15.0276H8.55095L11.0854 11.2259L10.2038 10.6309C9.13498 9.91462 8.61707 9.35264 8.61707 8.14052C8.61707 7.07165 9.36638 6.35539 10.7989 6.35539H11.5813V15.0276Z" fill="#1D1D1D"/>
</svg>
