<svg width="24" height="24" viewBox="0 0 24 24" fill="none" xmlns="http://www.w3.org/2000/svg">
<path d="M3.67111 15.9658L4.46047 16.0958L4.4964 15.8778L4.41528 15.6722L3.67111 15.9658ZM3.4716 15.4602L4.2158 15.1665L4.21281 15.1591L3.4716 15.4602ZM2.81598 21.1563L2.02662 21.0263C1.98485 21.2798 2.06739 21.5379 2.24849 21.7202C2.42959 21.9025 2.68721 21.9867 2.94099 21.9465L2.81598 21.1563ZM8.53984 20.5284L8.23664 21.2687L8.23882 21.2696L8.53984 20.5284ZM8.05086 20.3281L8.35406 19.5878L8.14693 19.503L7.92585 19.538L8.05086 20.3281ZM7.39941 11.2C6.95759 11.2 6.59941 11.5582 6.59941 12C6.59941 12.4418 6.95759 12.8 7.39941 12.8V11.2ZM7.40964 12.8C7.85147 12.8 8.20964 12.4418 8.20964 12C8.20964 11.5582 7.85147 11.2 7.40964 11.2V12.8ZM12 11.2C11.5582 11.2 11.2 11.5582 11.2 12C11.2 12.4418 11.5582 12.8 12 12.8V11.2ZM12.0102 12.8C12.4521 12.8 12.8102 12.4418 12.8102 12C12.8102 11.5582 12.4521 11.2 12.0102 11.2V12.8ZM16.6006 11.2C16.1588 11.2 15.8006 11.5582 15.8006 12C15.8006 12.4418 16.1588 12.8 16.6006 12.8V11.2ZM16.6108 12.8C17.0526 12.8 17.4108 12.4418 17.4108 12C17.4108 11.5582 17.0526 11.2 16.6108 11.2V12.8ZM12 22.0012C17.5235 22.0012 22.0012 17.5235 22.0012 12H20.4012C20.4012 16.6398 16.6398 20.4012 12 20.4012V22.0012ZM8.23882 21.2696C9.40096 21.7416 10.6712 22.0012 12 22.0012V20.4012C10.881 20.4012 9.81505 20.1828 8.84086 19.7872L8.23882 21.2696ZM2.94099 21.9465L8.17587 21.1183L7.92585 19.538L2.69097 20.3662L2.94099 21.9465ZM2.88176 15.8358L2.02662 21.0263L3.60533 21.2864L4.46047 16.0958L2.88176 15.8358ZM1.99883 12C1.99883 13.3288 2.25842 14.599 2.73039 15.7612L4.21281 15.1591C3.81716 14.1849 3.59883 13.119 3.59883 12H1.99883ZM12 1.99883C6.47651 1.99883 1.99883 6.47651 1.99883 12H3.59883C3.59883 7.36016 7.36016 3.59883 12 3.59883V1.99883ZM22.0012 12C22.0012 6.47651 17.5235 1.99883 12 1.99883V3.59883C16.6398 3.59883 20.4012 7.36016 20.4012 12H22.0012ZM7.39941 12.8H7.40964V11.2H7.39941V12.8ZM7.11059 12C7.11059 11.8405 7.2399 11.7112 7.39941 11.7112V13.3112C8.12356 13.3112 8.71059 12.7241 8.71059 12H7.11059ZM7.39941 11.7112C7.55893 11.7112 7.68824 11.8405 7.68824 12H6.08824C6.08824 12.7241 6.67527 13.3112 7.39941 13.3112V11.7112ZM7.68824 12C7.68824 12.1595 7.55893 12.2888 7.39941 12.2888V10.6888C6.67527 10.6888 6.08824 11.2759 6.08824 12H7.68824ZM7.39941 12.2888C7.2399 12.2888 7.11059 12.1595 7.11059 12H8.71059C8.71059 11.2759 8.12356 10.6888 7.39941 10.6888V12.2888ZM12 12.8H12.0102V11.2H12V12.8ZM11.7112 12C11.7112 11.8405 11.8405 11.7112 12 11.7112V13.3112C12.7241 13.3112 13.3112 12.7241 13.3112 12H11.7112ZM12 11.7112C12.1595 11.7112 12.2888 11.8405 12.2888 12H10.6888C10.6888 12.7241 11.2759 13.3112 12 13.3112V11.7112ZM12.2888 12C12.2888 12.1595 12.1595 12.2888 12 12.2888V10.6888C11.2759 10.6888 10.6888 11.2759 10.6888 12H12.2888ZM12 12.2888C11.8405 12.2888 11.7112 12.1595 11.7112 12H13.3112C13.3112 11.2759 12.7241 10.6888 12 10.6888V12.2888ZM16.6006 12.8H16.6108V11.2H16.6006V12.8ZM16.3118 12C16.3118 11.8405 16.4411 11.7112 16.6006 11.7112V13.3112C17.3247 13.3112 17.9118 12.7241 17.9118 12H16.3118ZM16.6006 11.7112C16.7601 11.7112 16.8894 11.8405 16.8894 12H15.2894C15.2894 12.7241 15.8764 13.3112 16.6006 13.3112V11.7112ZM16.8894 12C16.8894 12.1595 16.7601 12.2888 16.6006 12.2888V10.6888C15.8764 10.6888 15.2894 11.2759 15.2894 12H16.8894ZM16.6006 12.2888C16.4411 12.2888 16.3118 12.1595 16.3118 12H17.9118C17.9118 11.2759 17.3247 10.6888 16.6006 10.6888V12.2888ZM2.72744 15.7538L2.92695 16.2594L4.41528 15.6722L4.21576 15.1665L2.72744 15.7538ZM8.84304 19.7881L8.35406 19.5878L7.74766 21.0685L8.23664 21.2687L8.84304 19.7881Z" fill="#1D1D1D"/>
</svg>
