<svg width="24" height="24" viewBox="0 0 24 24" fill="none" xmlns="http://www.w3.org/2000/svg">
<path d="M11.8647 3.49811C11.3125 3.49811 10.8647 3.94582 10.8647 4.49811C10.8647 5.05039 11.3125 5.49811 11.8647 5.49811V3.49811ZM16.0925 6.84688L17.0412 6.53065L16.0925 6.84688ZM11.8647 5.49811C12.0642 5.49811 12.2684 5.48981 12.4515 5.48267C12.6417 5.47525 12.8156 5.46875 12.9878 5.46875C13.3332 5.46875 13.6162 5.49608 13.8607 5.57133C14.2552 5.69271 14.7545 5.99517 15.1439 7.16311L17.0412 6.53065C16.491 4.88006 15.5811 4.00814 14.4489 3.65977C13.9301 3.50014 13.4204 3.46875 12.9878 3.46875C12.7709 3.46875 12.5595 3.47693 12.3735 3.48419C12.1804 3.49172 12.0176 3.49811 11.8647 3.49811V5.49811ZM15.1439 7.16311C15.91 9.46143 16.7045 11.6893 17.01 12.7586L18.9331 12.2092C18.6122 11.0862 17.7783 8.74197 17.0412 6.53065L15.1439 7.16311Z" fill="#1D1D1D"/>
<circle cx="17.9714" cy="16.2419" r="3.75803" stroke="#1D1D1D" stroke-width="2"/>
<path d="M9.04631 14.4211C8.40523 13.2658 7.17295 12.4839 5.75803 12.4839C3.68253 12.4839 2 14.1664 2 16.2419C2 18.3174 3.68253 20 5.75803 20C7.17295 20 8.40523 19.218 9.04631 18.0627" stroke="#1D1D1D" stroke-width="2"/>
<path d="M7.63682 15.2419C7.08453 15.2419 6.63682 15.6897 6.63682 16.2419C6.63682 16.7942 7.08453 17.2419 7.63682 17.2419L7.63682 15.2419ZM14.2134 15.2419L7.63682 15.2419L7.63682 17.2419L14.2134 17.2419L14.2134 15.2419Z" fill="#1D1D1D"/>
<path d="M6.69775 9.66553H12.3348" stroke="#1D1D1D" stroke-width="2" stroke-linecap="round"/>
<line x1="10.4353" y1="9.27161" x2="13.2538" y2="15.8482" stroke="#1D1D1D" stroke-width="2"/>
</svg>
