<svg width="25" height="24" viewBox="0 0 25 24" fill="none" xmlns="http://www.w3.org/2000/svg">
<path d="M9.1665 19V21.2C9.1665 21.48 9.1665 21.62 9.11201 21.727C9.06407 21.8211 8.98758 21.8976 8.8935 21.9455C8.78654 22 8.64653 22 8.3665 22H6.4665C6.18648 22 6.04646 22 5.93951 21.9455C5.84543 21.8976 5.76894 21.8211 5.721 21.727C5.6665 21.62 5.6665 21.48 5.6665 21.2V19M19.6665 19V21.2C19.6665 21.48 19.6665 21.62 19.612 21.727C19.5641 21.8211 19.4876 21.8976 19.3935 21.9455C19.2865 22 19.1465 22 18.8665 22H16.9665C16.6865 22 16.5465 22 16.4395 21.9455C16.3454 21.8976 16.2689 21.8211 16.221 21.727C16.1665 21.62 16.1665 21.48 16.1665 21.2V19M3.6665 12H21.6665M3.6665 5.5H21.6665M7.1665 15.5H8.6665M16.6665 15.5H18.1665M8.4665 19H16.8665C18.5467 19 19.3867 19 20.0285 18.673C20.593 18.3854 21.0519 17.9265 21.3395 17.362C21.6665 16.7202 21.6665 15.8802 21.6665 14.2V6.8C21.6665 5.11984 21.6665 4.27976 21.3395 3.63803C21.0519 3.07354 20.593 2.6146 20.0285 2.32698C19.3867 2 18.5467 2 16.8665 2H8.4665C6.78635 2 5.94627 2 5.30453 2.32698C4.74005 2.6146 4.2811 3.07354 3.99348 3.63803C3.6665 4.27976 3.6665 5.11984 3.6665 6.8V14.2C3.6665 15.8802 3.6665 16.7202 3.99348 17.362C4.2811 17.9265 4.74005 18.3854 5.30453 18.673C5.94627 19 6.78635 19 8.4665 19Z" stroke="#1D1D1D" stroke-width="2" stroke-linecap="round" stroke-linejoin="round"/>
</svg>
