<svg width="23" height="20" viewBox="0 0 23 20" fill="none" xmlns="http://www.w3.org/2000/svg">
<path d="M18.3335 8V4.2C18.3335 3.0799 18.3335 2.51984 18.1155 2.09202C17.9238 1.71569 17.6178 1.40973 17.2415 1.21799C16.8137 1 16.2536 1 15.1335 1H7.5335C6.41339 1 5.85334 1 5.42552 1.21799C5.04919 1.40973 4.74323 1.71569 4.55148 2.09202C4.3335 2.51984 4.3335 3.0799 4.3335 4.2V8M4.3335 7H1.3335V6M18.3335 7H21.3335V6M5.3335 11.5H5.3435M17.3335 11.5H17.3435M6.1335 8H16.5335C18.2137 8 19.0537 8 19.6955 8.32698C20.26 8.6146 20.7189 9.07354 21.0065 9.63803C21.3335 10.2798 21.3335 11.1198 21.3335 12.8V16C21.3335 16.9319 21.3335 17.3978 21.1813 17.7654C20.9783 18.2554 20.5889 18.6448 20.0989 18.8478C19.7313 19 19.2654 19 18.3335 19H17.7335C17.3619 19 17.1761 19 17.0206 18.9754C16.1648 18.8398 15.4937 18.1687 15.3581 17.3129C15.3335 17.1574 15.3335 16.9716 15.3335 16.6C15.3335 16.5071 15.3335 16.4606 15.3273 16.4218C15.2935 16.2078 15.1257 16.04 14.9117 16.0062C14.8728 16 14.8264 16 14.7335 16H7.9335C7.8406 16 7.79415 16 7.75528 16.0062C7.54133 16.04 7.37354 16.2078 7.33965 16.4218C7.3335 16.4606 7.3335 16.5071 7.3335 16.6C7.3335 16.9716 7.3335 17.1574 7.30887 17.3129C7.17333 18.1687 6.50215 18.8398 5.64637 18.9754C5.4909 19 5.3051 19 4.9335 19H4.3335C3.40161 19 2.93567 19 2.56813 18.8478C2.07807 18.6448 1.68872 18.2554 1.48574 17.7654C1.3335 17.3978 1.3335 16.9319 1.3335 16V12.8C1.3335 11.1198 1.3335 10.2798 1.66048 9.63803C1.9481 9.07354 2.40704 8.6146 2.97152 8.32698C3.61326 8 4.45334 8 6.1335 8ZM5.8335 11.5C5.8335 11.7761 5.60964 12 5.3335 12C5.05735 12 4.8335 11.7761 4.8335 11.5C4.8335 11.2239 5.05735 11 5.3335 11C5.60964 11 5.8335 11.2239 5.8335 11.5ZM17.8335 11.5C17.8335 11.7761 17.6096 12 17.3335 12C17.0574 12 16.8335 11.7761 16.8335 11.5C16.8335 11.2239 17.0574 11 17.3335 11C17.6096 11 17.8335 11.2239 17.8335 11.5Z" stroke="#1D1D1D" stroke-width="2" stroke-linecap="round" stroke-linejoin="round"/>
</svg>
