<svg width="24" height="24" viewBox="0 0 24 24" fill="none" xmlns="http://www.w3.org/2000/svg">
<g clip-path="url(#clip0_170_7707)">
<path d="M15.3365 23.0247L12.3773 17.457L10.0374 14.6722C9.69173 14.1277 9.50938 13.5068 9.50938 12.8743V7.60791M9.50938 7.60791H10.3262C10.6015 7.60785 10.8742 7.65828 11.1286 7.75633C11.383 7.85438 11.6142 7.99813 11.809 8.17936C12.0037 8.3606 12.1582 8.57577 12.2635 8.81258C12.3689 9.0494 12.4232 9.30322 12.4232 9.55956V17.457M9.50938 7.60791C7.56719 7.60791 5.625 11.2244 5.625 11.2244V14.6722M17.875 13.375L15 10.4375M6.4375 23L9.50938 18.8125" stroke="#1D1D1D" stroke-width="2" stroke-linecap="round" stroke-linejoin="round"/>
<path d="M11.481 5C12.5855 5 13.481 4.10457 13.481 3C13.481 1.89543 12.5855 1 11.481 1C10.3764 1 9.48096 1.89543 9.48096 3C9.48096 4.10457 10.3764 5 11.481 5Z" stroke="#1D1D1D" stroke-width="2" stroke-linecap="round" stroke-linejoin="round"/>
</g>
<defs>
<clipPath id="clip0_170_7707">
<rect width="24" height="24" fill="white"/>
</clipPath>
</defs>
</svg>
