<svg width="24" height="24" viewBox="0 0 24 24" fill="none" xmlns="http://www.w3.org/2000/svg">
<path d="M20.3205 21.4598L20.8858 22.0259L22.0179 20.8953L21.4526 20.3292L20.3205 21.4598ZM15.7135 14.582C15.4013 14.2693 14.8947 14.269 14.5821 14.5812C14.2694 14.8934 14.2691 15.3999 14.5813 15.7126L15.7135 14.582ZM21.4526 20.3292L15.7135 14.582L14.5813 15.7126L20.3205 21.4598L21.4526 20.3292ZM16.4031 10.0078C16.4031 13.5398 13.5398 16.4031 10.0078 16.4031V18.0031C14.4235 18.0031 18.0031 14.4235 18.0031 10.0078H16.4031ZM10.0078 16.4031C6.47577 16.4031 3.6125 13.5398 3.6125 10.0078H2.0125C2.0125 14.4235 5.59211 18.0031 10.0078 18.0031V16.4031ZM3.6125 10.0078C3.6125 6.47577 6.47577 3.6125 10.0078 3.6125V2.0125C5.59211 2.0125 2.0125 5.59211 2.0125 10.0078H3.6125ZM10.0078 3.6125C13.5398 3.6125 16.4031 6.47577 16.4031 10.0078H18.0031C18.0031 5.59211 14.4235 2.0125 10.0078 2.0125V3.6125Z" fill="#1D1D1D"/>
</svg>
