<svg width="232" height="138" viewBox="0 0 232 138" fill="none" xmlns="http://www.w3.org/2000/svg">
<g clip-path="url(#clip0_77_110516)">
<path d="M77.2349 62.0065C74.4111 64.3843 72.9793 67.6656 73.0868 71.344C73.1213 72.5332 73.5761 74.2402 74.4431 76.5433L75.7437 79.998L81.008 78.0163L86.2723 76.0345L85.2814 73.4023L84.2905 70.7701L100.083 64.8248L115.876 58.8794L116.867 61.5115L117.858 64.1437L123.155 62.1495L128.453 60.1553L126.86 56.3225C125.522 53.0694 125.081 52.2964 123.763 50.9896C121.867 49.1486 119.578 48.057 116.817 47.7067L114.771 47.4624L96.6506 54.209C80.767 60.1134 78.3571 61.0957 77.2349 62.0065Z" fill="white"/>
<path d="M52.9509 95.1893C47.9478 98.7631 45.2769 104.84 45.9143 111.024C46.2352 114.171 66.7549 168.578 68.5563 171.168C72.3074 176.443 79.014 179.29 85.2588 178.216C86.3078 178.009 89.1993 177.108 91.6998 176.167L96.2732 174.445L80.4189 132.331L64.5645 90.2162L59.5758 92.1318C56.2856 93.3704 53.9786 94.4267 52.9509 95.1893Z" fill="white"/>
<path d="M85.6833 130.348L101.538 172.463L135.756 159.581L169.974 146.7L154.119 104.585L138.265 62.4704L104.047 75.352L69.8289 88.2337L85.6833 130.348Z" fill="white"/>
<path d="M159.384 102.604L175.238 144.719L179.812 142.997C185.372 140.904 187.091 139.881 189.56 137.261C192.938 133.66 194.614 128.033 193.78 123.126C193.337 120.55 173.073 66.7227 171.708 64.4942C169.263 60.4937 164.334 57.2782 159.782 56.6627C156.148 56.19 153.861 56.6003 148.399 58.6564L143.53 60.4895L159.384 102.604Z" fill="white"/>
</g>
<defs>
<clipPath id="clip0_77_110516">
<rect width="180" height="180" fill="white" transform="translate(0 54.418) rotate(-20.6292)"/>
</clipPath>
</defs>
</svg>
