<svg width="25" height="24" viewBox="0 0 25 24" fill="none" xmlns="http://www.w3.org/2000/svg">
<path d="M11.5835 5C11.5835 5.41421 11.9193 5.75 12.3335 5.75C12.7477 5.75 13.0835 5.41421 13.0835 5H11.5835ZM4.3335 19H3.5835C3.5835 19.4142 3.91928 19.75 4.3335 19.75V19ZM20.3335 19V19.75C20.7477 19.75 21.0835 19.4142 21.0835 19H20.3335ZM20.3335 5H21.0835C21.0835 4.58579 20.7477 4.25 20.3335 4.25V5ZM4.3335 5V4.25C3.91928 4.25 3.5835 4.58579 3.5835 5H4.3335ZM4.3335 11.25C3.91928 11.25 3.5835 11.5858 3.5835 12C3.5835 12.4142 3.91928 12.75 4.3335 12.75V11.25ZM20.3335 12.75C20.7477 12.75 21.0835 12.4142 21.0835 12C21.0835 11.5858 20.7477 11.25 20.3335 11.25V12.75ZM18.8335 22H19.5835C19.5835 21.8836 19.5564 21.7687 19.5043 21.6646L18.8335 22ZM5.8335 22L5.16268 21.6646C5.1106 21.7687 5.0835 21.8836 5.0835 22H5.8335ZM8.8335 14.75C8.41928 14.75 8.0835 15.0858 8.0835 15.5C8.0835 15.9142 8.41928 16.25 8.8335 16.25V14.75ZM8.8435 16.25C9.25771 16.25 9.5935 15.9142 9.5935 15.5C9.5935 15.0858 9.25771 14.75 8.8435 14.75V16.25ZM15.8335 14.75C15.4193 14.75 15.0835 15.0858 15.0835 15.5C15.0835 15.9142 15.4193 16.25 15.8335 16.25V14.75ZM15.8435 16.25C16.2577 16.25 16.5935 15.9142 16.5935 15.5C16.5935 15.0858 16.2577 14.75 15.8435 14.75V16.25ZM9.3335 22.75H15.3335V21.25H9.3335V22.75ZM7.3335 2.75H17.3335V1.25H7.3335V2.75ZM13.0835 5V2H11.5835V5H13.0835ZM4.3335 5.75H20.3335V4.25H4.3335V5.75ZM19.5835 5V19H21.0835V5H19.5835ZM17.3335 18.25H7.3335V19.75H17.3335V18.25ZM5.0835 19V5H3.5835V19H5.0835ZM4.3335 12.75H20.3335V11.25H4.3335V12.75ZM16.6627 19.3354L18.1627 22.3354L19.5043 21.6646L18.0043 18.6646L16.6627 19.3354ZM6.66268 18.6646L5.16268 21.6646L6.50432 22.3354L8.00432 19.3354L6.66268 18.6646ZM8.8335 16.25H8.8435V14.75H8.8335V16.25ZM8.5835 15.5C8.5835 15.3619 8.69543 15.25 8.8335 15.25V16.75C9.52385 16.75 10.0835 16.1904 10.0835 15.5H8.5835ZM8.8335 15.25C8.97157 15.25 9.0835 15.3619 9.0835 15.5H7.5835C7.5835 16.1904 8.14314 16.75 8.8335 16.75V15.25ZM9.0835 15.5C9.0835 15.6381 8.97157 15.75 8.8335 15.75V14.25C8.14314 14.25 7.5835 14.8096 7.5835 15.5H9.0835ZM8.8335 15.75C8.69543 15.75 8.5835 15.6381 8.5835 15.5H10.0835C10.0835 14.8096 9.52385 14.25 8.8335 14.25V15.75ZM15.8335 16.25H15.8435V14.75H15.8335V16.25ZM15.5835 15.5C15.5835 15.3619 15.6954 15.25 15.8335 15.25V16.75C16.5239 16.75 17.0835 16.1904 17.0835 15.5H15.5835ZM15.8335 15.25C15.9716 15.25 16.0835 15.3619 16.0835 15.5H14.5835C14.5835 16.1904 15.1431 16.75 15.8335 16.75V15.25ZM16.0835 15.5C16.0835 15.6381 15.9716 15.75 15.8335 15.75V14.25C15.1431 14.25 14.5835 14.8096 14.5835 15.5H16.0835ZM15.8335 15.75C15.6954 15.75 15.5835 15.6381 15.5835 15.5H17.0835C17.0835 14.8096 16.5239 14.25 15.8335 14.25V15.75ZM4.3335 19.75H7.3335V18.25H4.3335V19.75ZM20.3335 18.25H17.3335V19.75H20.3335V18.25ZM5.0835 22V23H6.5835V22H5.0835ZM18.0835 22V23H19.5835V22H18.0835Z" fill="white"/>
</svg>
