<svg width="25" height="24" viewBox="0 0 25 24" fill="none" xmlns="http://www.w3.org/2000/svg">
<path d="M11.75 5C11.75 5.41421 12.0858 5.75 12.5 5.75C12.9142 5.75 13.25 5.41421 13.25 5H11.75ZM4.5 19H3.75C3.75 19.4142 4.08579 19.75 4.5 19.75V19ZM20.5 19V19.75C20.9142 19.75 21.25 19.4142 21.25 19H20.5ZM20.5 5H21.25C21.25 4.58579 20.9142 4.25 20.5 4.25V5ZM4.5 5V4.25C4.08579 4.25 3.75 4.58579 3.75 5H4.5ZM4.5 11.25C4.08579 11.25 3.75 11.5858 3.75 12C3.75 12.4142 4.08579 12.75 4.5 12.75V11.25ZM20.5 12.75C20.9142 12.75 21.25 12.4142 21.25 12C21.25 11.5858 20.9142 11.25 20.5 11.25V12.75ZM19 22H19.75C19.75 21.8836 19.7229 21.7687 19.6708 21.6646L19 22ZM6 22L5.32918 21.6646C5.27711 21.7687 5.25 21.8836 5.25 22H6ZM9 14.75C8.58579 14.75 8.25 15.0858 8.25 15.5C8.25 15.9142 8.58579 16.25 9 16.25V14.75ZM9.01 16.25C9.42421 16.25 9.76 15.9142 9.76 15.5C9.76 15.0858 9.42421 14.75 9.01 14.75V16.25ZM16 14.75C15.5858 14.75 15.25 15.0858 15.25 15.5C15.25 15.9142 15.5858 16.25 16 16.25V14.75ZM16.01 16.25C16.4242 16.25 16.76 15.9142 16.76 15.5C16.76 15.0858 16.4242 14.75 16.01 14.75V16.25ZM9.5 22.75H15.5V21.25H9.5V22.75ZM7.5 2.75H17.5V1.25H7.5V2.75ZM13.25 5V2H11.75V5H13.25ZM4.5 5.75H20.5V4.25H4.5V5.75ZM19.75 5V19H21.25V5H19.75ZM17.5 18.25H7.5V19.75H17.5V18.25ZM5.25 19V5H3.75V19H5.25ZM4.5 12.75H20.5V11.25H4.5V12.75ZM16.8292 19.3354L18.3292 22.3354L19.6708 21.6646L18.1708 18.6646L16.8292 19.3354ZM6.82918 18.6646L5.32918 21.6646L6.67082 22.3354L8.17082 19.3354L6.82918 18.6646ZM9 16.25H9.01V14.75H9V16.25ZM8.75 15.5C8.75 15.3619 8.86193 15.25 9 15.25V16.75C9.69036 16.75 10.25 16.1904 10.25 15.5H8.75ZM9 15.25C9.13807 15.25 9.25 15.3619 9.25 15.5H7.75C7.75 16.1904 8.30964 16.75 9 16.75V15.25ZM9.25 15.5C9.25 15.6381 9.13807 15.75 9 15.75V14.25C8.30964 14.25 7.75 14.8096 7.75 15.5H9.25ZM9 15.75C8.86193 15.75 8.75 15.6381 8.75 15.5H10.25C10.25 14.8096 9.69036 14.25 9 14.25V15.75ZM16 16.25H16.01V14.75H16V16.25ZM15.75 15.5C15.75 15.3619 15.8619 15.25 16 15.25V16.75C16.6904 16.75 17.25 16.1904 17.25 15.5H15.75ZM16 15.25C16.1381 15.25 16.25 15.3619 16.25 15.5H14.75C14.75 16.1904 15.3096 16.75 16 16.75V15.25ZM16.25 15.5C16.25 15.6381 16.1381 15.75 16 15.75V14.25C15.3096 14.25 14.75 14.8096 14.75 15.5H16.25ZM16 15.75C15.8619 15.75 15.75 15.6381 15.75 15.5H17.25C17.25 14.8096 16.6904 14.25 16 14.25V15.75ZM4.5 19.75H7.5V18.25H4.5V19.75ZM20.5 18.25H17.5V19.75H20.5V18.25ZM5.25 22V23H6.75V22H5.25ZM18.25 22V23H19.75V22H18.25Z" fill="#060606"/>
</svg>
