<svg width="14" height="16" viewBox="0 0 14 16" fill="none" xmlns="http://www.w3.org/2000/svg">
<path d="M5.94474 4.22L5.1653 6.24503C5.14428 6.29965 5.0971 6.33871 5.04117 6.34779L3.17007 6.65175C3.04603 6.67191 2.99136 6.82567 3.073 6.92479L4.44249 8.58768C4.4726 8.62425 4.48603 8.67257 4.47933 8.72019L4.16062 10.9829C4.14097 11.1224 4.28651 11.2226 4.4025 11.1495L6.01045 10.1356C6.06157 10.1034 6.12571 10.1034 6.17684 10.1356L7.78479 11.1495C7.90078 11.2226 8.04631 11.1224 8.02666 10.9829L7.70796 8.72019C7.70125 8.67257 7.71468 8.62425 7.7448 8.58768L9.11429 6.92479C9.19592 6.82567 9.14126 6.67191 9.01721 6.65175L7.14612 6.34779C7.09019 6.33871 7.04301 6.29965 7.02198 6.24503L6.24255 4.22C6.18878 4.08031 5.99851 4.08031 5.94474 4.22Z" fill="#007470"/>
<path fill-rule="evenodd" clip-rule="evenodd" d="M5.90133 15.9962C2.52624 15.8618 0 12.2141 0 8C0 3.78587 2.52624 0.138169 5.90133 0.00383206L7.90572 0C11.3769 0.000223366 14 3.70607 14 8C14 12.2939 11.3772 15.9998 7.90603 16C7.90592 16 7.90613 16 7.90603 16H5.90133V15.9962ZM0.962255 8C0.962255 4.00979 3.36546 1 6.09428 1C7.33631 1.00014 8.51127 1.62379 9.42244 2.67959C10.5125 3.94966 11.2257 5.84235 11.2257 8C11.2257 10.1577 10.5125 12.0504 9.42236 13.3205C8.5111 14.3764 7.33643 15 6.09428 15C3.36546 15 0.962255 11.9902 0.962255 8Z" fill="#007470"/>
<path d="M5.90133 0.00383206L6.09428 0H5.90133V0.00383206Z" fill="#007470"/>
</svg>
