<svg width="16" height="16" viewBox="0 0 16 16" fill="none" xmlns="http://www.w3.org/2000/svg">
<path d="M8.00016 13.3333H3.46683C2.72009 13.3333 2.34672 13.3333 2.06151 13.188C1.81063 13.0602 1.60665 12.8562 1.47882 12.6053C1.3335 12.3201 1.3335 11.9467 1.3335 11.2V4.79999C1.3335 4.05325 1.3335 3.67988 1.47882 3.39467C1.60665 3.14379 1.81063 2.93981 2.06151 2.81198C2.34672 2.66666 2.72009 2.66666 3.46683 2.66666H3.7335C5.22697 2.66666 5.97371 2.66666 6.54414 2.95731C7.0459 3.21297 7.45385 3.62092 7.70951 4.12268C8.00016 4.69311 8.00016 5.43985 8.00016 6.93332M8.00016 13.3333V6.93332M8.00016 13.3333H12.5335C13.2802 13.3333 13.6536 13.3333 13.9388 13.188C14.1897 13.0602 14.3937 12.8562 14.5215 12.6053C14.6668 12.3201 14.6668 11.9467 14.6668 11.2V4.79999C14.6668 4.05325 14.6668 3.67988 14.5215 3.39467C14.3937 3.14379 14.1897 2.93981 13.9388 2.81198C13.6536 2.66666 13.2802 2.66666 12.5335 2.66666H12.2668C10.7734 2.66666 10.0266 2.66666 9.45619 2.95731C8.95442 3.21297 8.54647 3.62092 8.29081 4.12268C8.00016 4.69311 8.00016 5.43985 8.00016 6.93332" stroke="#1D1D1D" stroke-width="1.2" stroke-linecap="round" stroke-linejoin="round"/>
</svg>
